<?xml version="1.0" standalone="no"?>
<!DOCTYPE svg PUBLIC "-//W3C//DTD SVG 20010904//EN"
 "http://www.w3.org/TR/2001/REC-SVG-20010904/DTD/svg10.dtd">
<svg version="1.0" xmlns="http://www.w3.org/2000/svg"
 width="500.000000pt" height="500.000000pt" viewBox="0 0 500.000000 500.000000"
 preserveAspectRatio="xMidYMid meet">
<metadata>
Created by potrace 1.14, written by Peter Selinger 2001-2017
</metadata>
<g transform="translate(0.000000,500.000000) scale(0.100000,-0.100000)"
fill="#000000" stroke="none">
<path d="M3518 4877 c-18 -8 -104 -115 -249 -307 -121 -162 -222 -296 -224
-298 -1 -2 -39 6 -84 18 -131 33 -276 52 -426 55 -749 14 -1426 -421 -1728
-1110 -79 -180 -128 -371 -145 -567 -41 -461 93 -923 372 -1291 120 -157 305
-327 356 -327 32 0 70 30 70 55 0 23 10 19 99 -39 45 -30 118 -73 162 -96 71
-37 78 -43 64 -56 -8 -9 -20 -25 -27 -37 -6 -12 -52 -75 -102 -141 -425 -557
-476 -629 -476 -666 0 -59 55 -89 109 -60 10 5 63 69 117 142 54 73 101 135
104 138 3 3 81 106 174 230 93 124 172 229 176 233 4 5 57 -5 116 -23 195 -56
318 -73 524 -73 207 0 334 18 529 74 l109 32 329 -148 c180 -81 357 -161 393
-178 225 -102 355 -157 375 -157 33 0 65 31 67 65 2 27 -6 106 -18 169 -5 29
-75 503 -119 811 -20 138 -38 257 -41 266 -2 8 16 56 40 106 167 340 223 745
156 1123 -53 297 -163 548 -355 805 -138 184 -398 415 -468 415 -43 0 -56 -10
-71 -52 l-12 -36 -63 38 c-35 21 -101 55 -146 76 l-83 38 23 30 c13 17 125
166 249 330 125 165 229 310 232 322 14 57 -54 114 -108 91z m471 -3384 c6
-55 14 -112 16 -125 3 -12 8 -43 11 -68 3 -25 11 -83 19 -130 7 -47 16 -107
20 -135 9 -68 14 -105 30 -210 8 -49 16 -106 19 -125 2 -19 10 -72 16 -117 7
-45 11 -86 9 -91 -2 -5 -103 36 -224 90 -204 92 -386 173 -545 244 -36 16 -94
43 -130 60 l-65 32 50 22 c127 55 327 186 435 284 102 94 208 217 276 324 22
34 42 58 45 54 3 -4 11 -53 18 -109z"/>
</g>
</svg>
